<svg width="960" height="540" viewBox="0 0 960 540" fill="none" xmlns="http://www.w3.org/2000/svg">
  <rect width="960" height="540" rx="40" fill="#F5F9FD"/>
  <rect x="54" y="52" width="852" height="72" rx="24" fill="#FFFFFF"/>
  <rect x="84" y="72" width="180" height="32" rx="16" fill="#2A9EEA"/>
  <rect x="82" y="170" width="390" height="278" rx="28" fill="#FFFFFF"/>
  <rect x="500" y="170" width="378" height="130" rx="28" fill="#FFFFFF"/>
  <rect x="500" y="318" width="378" height="130" rx="28" fill="#FFFFFF"/>
  <rect x="108" y="198" width="120" height="18" rx="9" fill="#A8D5F5"/>
  <rect x="108" y="232" width="244" height="14" rx="7" fill="#D5EAF8"/>
  <rect x="108" y="258" width="218" height="14" rx="7" fill="#D5EAF8"/>
  <rect x="108" y="284" width="164" height="14" rx="7" fill="#D5EAF8"/>
  <rect x="108" y="336" width="96" height="34" rx="17" fill="#2A9EEA"/>
  <rect x="526" y="196" width="132" height="18" rx="9" fill="#A8D5F5"/>
  <rect x="526" y="232" width="210" height="14" rx="7" fill="#D5EAF8"/>
  <rect x="526" y="344" width="132" height="18" rx="9" fill="#A8D5F5"/>
  <rect x="526" y="380" width="190" height="14" rx="7" fill="#D5EAF8"/>
</svg>
