<svg width="208" height="64" viewBox="0 0 208 64" fill="none" xmlns="http://www.w3.org/2000/svg">
  <rect x="3" y="4" width="202" height="56" rx="18" fill="#2A9EEA"/>
  <path d="M48.2 22.4C53.4 22.4 57.2 26.2 57.2 31.2C57.2 36.2 53.4 40 48.2 40C43 40 39.2 36.2 39.2 31.2C39.2 26.2 43 22.4 48.2 22.4ZM48.2 27C45.7 27 43.8 28.8 43.8 31.2C43.8 33.6 45.7 35.4 48.2 35.4C50.7 35.4 52.6 33.6 52.6 31.2C52.6 28.8 50.7 27 48.2 27Z" fill="white"/>
  <path d="M67.4 24H73L79 39.4H74.2L73 36.2H67L65.8 39.4H61.2L67.4 24ZM68.6 32.6H71.6L70.1 28.2L68.6 32.6Z" fill="white"/>
  <path d="M84.2 24H88.8V35.2H95.2V39.4H84.2V24Z" fill="white"/>
  <path d="M98.4 24H103V39.4H98.4V24Z" fill="white"/>
  <path d="M109.1 24H123.5V28H113.7V30.1H121.8V33.9H113.7V39.4H109.1V24Z" fill="white"/>
  <path d="M129.6 24H143.9V28H134.2V30H142.8V33.7H134.2V35.4H144V39.4H129.6V24Z" fill="white"/>
</svg>
